{"title":"Game of Thrones 601 The Red Woman WEBRip 6ch x265 10bit [S-Less]","uid":14729750,"size":403899970,"categoryP":"video","categoryS":"hd___tv_shows","magnet":"?xt=urn:btih:0a92fca8c2597de7be9c61164c224552c68f4870&amp;dn=Game+of+Thrones+601+The+Red+Woman+WEBRip+6ch+x265+10bit+%5BS-Less%5D&amp;tr=udp%3A%2F%2Ftracker.leechers-paradise.org%3A6969&amp;tr=udp%3A%2F%2Fzer0day.ch%3A1337&amp;tr=udp%3A%2F%2Fopen.demonii.com%3A1337&amp;tr=udp%3A%2F%2Ftracker.coppersurfer.tk%3A6969&amp;tr=udp%3A%2F%2Fexodus.desync.com%3A6969","seeders":1,"leechers":0,"uploader":"soulessness","files":1,"time":1464583106,"description":"Game.of.Thrones.S06E01.The.Red.Woman.WEBRip.6ch.x265.10bit.[S-Less]\r\n\r\nVideo: 1912x1072 x265 10bit\r\nAudio: 5.1 English\r\nSubtitles: English (Soft-coded)\r\n\r\nDescription\r\nBased on the bestselling book series A Song of Ice and Fire by George R.R. Martin, this sprawling new HBO drama is set in a world where summers span decades and winters can last a lifetime. From the scheming south and the savage eastern lands, to the frozen north and ancient Wall that protects the realm from the mysterious darkness beyond, the powerful families of the Seven Kingdoms are locked in a battle for the Iron Throne. This is a story of duplicity and treachery, nobility and honor, conquest and triumph. In the &quot;Game of Thrones&quot;, you either win or you die.\r\n\r\nS06E01 The Red Woman\r\nThe fate of Jon Snow is revealed. Daenerys is brought before Khal Moro. Tyrion gets used to living in Meereen. Ramsay sends his dogs after Theon and Sansa. Ellaria and the Sand Snakes make their move. Cersei mourns for Myrcella. \r\n\r\nMediaInfo:\r\nVideo\r\n ID : 1\r\n Format : HEVC\r\n Format/Info : High Efficiency Video Coding\r\n Format profile : Main   @Main\r\n Codec ID : V_MPEGH/ISO/HEVC\r\n Duration : 50mn 0s\r\n Bit rate : 883 Kbps\r\n Width : 1 912 pixels\r\n Height : 1 072 pixels\r\n Display aspect ratio : 16:9\r\n Frame rate mode : Constant\r\n Frame rate : 23.976 (24000/1001) fps\r\n Color space : YUV\r\n Chroma subsampling : 4:2:0\r\n Bit depth : 10 bits\r\n Bits/(Pixel*Frame) : 0.018\r\n Stream size : 316 MiB (82%)\r\n Writing library : x265 1.8+2-55a4a9b920ff:[Windows][GCC 5.2.0][64 bit] 10bit\r\n Default : Yes\r\n Forced : No\r\n\r\n Audio\r\n ID : 2\r\n Format : AAC\r\n Format/Info : Advanced Audio Codec\r\n Format profile : HE-AAC / LC\r\n Codec ID : A_AAC\r\n Duration : 50mn 0s\r\n Bit rate : 192 Kbps\r\n Channel(s) : 6 channels\r\n Channel positions : Front: L C R, Side: L R, LFE\r\n Sampling rate : 48.0 KHz / 24.0 KHz\r\n Frame rate : 23.438 fps (1024 spf)\r\n Compression mode : Lossy\r\n Delay relative to video : 31ms\r\n Stream size : 68.6 MiB (18%)\r\n Language : English\r\n Default : Yes\r\n Forced : No\r\n\r\n Text\r\n ID : 3\r\n Format : UTF-8\r\n Codec ID : S_TEXT/UTF8\r\n Codec ID/Info : UTF-8 Plain Text\r\n Duration : 48mn 37s\r\n Bit rate : 42 bps\r\n Count of elements : 479\r\n Stream size : 15.1 KiB (0%)\r\n Language : English\r\n Default : Yes\r\n Forced : No","torrent":{"xt":"urn:btih:0a92fca8c2597de7be9c61164c224552c68f4870","amp;dn":"Game+of+Thrones+601+The+Red+Woman+WEBRip+6ch+x265+10bit+%5BS-Less%5D","amp;tr":["udp%3A%2F%2Ftracker.leechers-paradise.org%3A6969","udp%3A%2F%2Fzer0day.ch%3A1337","udp%3A%2F%2Fopen.demonii.com%3A1337","udp%3A%2F%2Ftracker.coppersurfer.tk%3A6969","udp%3A%2F%2Fexodus.desync.com%3A6969"],"infoHash":"0a92fca8c2597de7be9c61164c224552c68f4870","infoHashBuffer":{"type":"Buffer","data":[10,146,252,168,194,89,125,231,190,156,97,22,76,34,69,82,198,143,72,112]},"announce":[],"urlList":[]}}